<?xml version="1.0" encoding="utf-8"?>
<!-- Generator: Adobe Illustrator 24.2.1, SVG Export Plug-In . SVG Version: 6.00 Build 0)  -->
<svg version="1.1" id="Layer_1" xmlns="http://www.w3.org/2000/svg" xmlns:xlink="http://www.w3.org/1999/xlink" x="0px" y="0px"
	 width="930" height="127" viewBox="35 52 930 127" style="enable-background:new 0 0 1008.8 229.1;"
	 xml:space="preserve">
<style type="text/css">
	.st0{fill-rule:evenodd;clip-rule:evenodd;}
</style>
<path d="M151.6,161.6c-4.5,4.3-9.7,7.8-15.4,10.4c-1.1,0.4-2.2,0.9-3.2,1.2c1-0.6,2.1-1.3,3.2-2c5.7-3.8,10.9-8.4,15.4-13.6
	c9.6-11,14.8-25.2,14.5-39.8c-0.1-14.3-5.2-28.1-14.5-39c-4.5-5.2-9.7-9.8-15.4-13.6c-1.1-0.7-2.2-1.4-3.2-2.1c1,0.5,2.1,1,3.2,1.6
	c5.6,2.8,10.8,6.4,15.4,10.7c23.8,22.8,24.7,60.6,2,84.4C152.9,160.3,152.2,160.9,151.6,161.6z M125.4,142.4
	c-1.7,1.1-3.6,1.8-5.6,2.2c2-1.3,3.9-2.7,5.6-4.3c5.6-5.2,9-12,9-22.2c-0.2-10.1-3.5-16.9-9-22.1c-1.7-1.6-3.6-3.1-5.6-4.4
	c1.9,0.7,3.8,1.6,5.6,2.7c4.6,2.8,8.3,6.8,10.8,11.5C142.9,118.9,138.2,134.9,125.4,142.4z M79.8,118.1c0-14.9,11.9-28.2,25.7-28.8
	c13.7,0.6,25.7,13.9,25.7,28.8s-11.9,28.2-25.7,28.8C91.7,146.3,79.8,133,79.8,118.1z M85.6,142.4c-4.6-2.7-8.4-6.7-10.8-11.4
	c-4.2-7.9-4.2-17.4,0-25.3c2.4-4.8,6.2-8.9,10.8-11.6c1.7-1,3.6-1.9,5.5-2.6c-1.9,1.3-3.8,2.7-5.5,4.3c-5.6,5.3-9,12.2-9,22.3
	c-0.2,10.3,3.3,17.1,9,22.3c1.7,1.6,3.5,3,5.5,4.2C89.1,144.2,87.3,143.5,85.6,142.4L85.6,142.4z M74.7,171.9
	c-5.7-2.5-10.9-6-15.4-10.4c-23.8-22.8-24.7-60.6-2-84.4c0.6-0.7,1.3-1.3,2-2c4.6-4.3,9.8-7.9,15.4-10.7c1.1-0.5,2.2-1,3.2-1.5
	c-1,0.7-2.1,1.4-3.2,2.1c-5.7,3.9-10.8,8.5-15.4,13.6c-9.2,10.9-14.4,24.7-14.5,39c-0.3,14.6,4.9,28.8,14.5,39.7
	c4.5,5.2,9.7,9.8,15.4,13.6c1.1,0.7,2.2,1.4,3.2,2C76.9,172.8,75.8,172.3,74.7,171.9L74.7,171.9z M105.4,54.5
	c-38.4,0-67.9,28.5-67.9,63.6s29.5,63.6,67.9,63.6s67.9-28.5,67.9-63.6S143.8,54.5,105.4,54.5z"/>
<path class="st0" d="M656.7,119v16.1H695v6.7h-45.4V91.3H695v6.7h-38.3v14.4h25.9v6.7h-25.9V119z M418.7,95.8c-15.9,0-22,13-22,20.4
	c0,15.2,13.5,22.1,22,22.1c1.5,0,3-0.2,4.5-0.6c-3-2.9-7.2-4.1-11.2-3.2c1.3-2.7,8-5.7,18.3,0.6c6.7-4.5,10.1-9.9,10.1-18.2
	C440.4,102.5,427.3,95.8,418.7,95.8L418.7,95.8z M418.7,90.7c8.5,0,29.7,3.8,29.7,26.2c0,14-10.9,20.1-13.7,21.7l8,7l-3.8,5.1
	l-10.2-8.6c-3.2,1-6.5,1.6-9.9,1.6c-25.7,0-30-21-30-26.8C388.7,99.2,402.9,90.7,418.7,90.7L418.7,90.7z M632.4,91.4h7v50.5h-7
	C632.4,141.9,632.4,91.3,632.4,91.4z M331.4,116.6c0,18.3,27.7,28.2,47.3,10.9l4.2,4.8c-0.6,0.6-9.2,10.2-27.5,10.2
	c-13.1,0-32.3-5.8-32.3-25.9c0-7.1,4.4-15.3,12.9-20.4c10.9-7.1,29.9-8.1,44.6,1.2l-3.5,5.1C360.1,90.2,331.4,97.7,331.4,116.6
	L331.4,116.6z M255.4,102.2l-22.7,40.6l-22.1-40.6v39.6h-7V91.4h9.6l19.8,37.7l20.5-37.7h8.9v50.5h-7 M296.9,98.1l10.9,24.6h-22.1
	L296.9,98.1L296.9,98.1z M293.4,91.4h7l24.3,50.5H317l-6.4-13.1h-27.5l-6.4,13.1h-7.4L293.4,91.4L293.4,91.4z M534,98.1l10.9,24.6
	h-22.1L534,98.1L534,98.1z M530.4,91.4h7l24.3,50.5H554l-6.4-13.1h-27.5l-6.4,13.1h-7.4L530.4,91.4L530.4,91.4z M603.3,91.4
	c17.7,0,17.9,11.8,17.9,14.1c0,3.2-1.1,11.9-15.3,14.1l16,22.4h-8.6l-15-22.1h-21.8v22.1h-7V91.3L603.3,91.4z M601.1,114
	c13-0.1,12.8-7.3,12.8-8.6c0-1-0.4-8.3-10.9-8.3h-26.5V114H601.1z M479.1,137.6c10.1-0.2,14.2-2.7,15.9-4.4s2.1-4.8,2.1-7.3V91.3
	h6.7v34.8c0,4.6-0.2,8.1-3.8,11.2c-2.1,1.8-6.2,5.7-20.9,5.7s-18.8-3.9-20.9-5.7c-3.7-3.1-3.8-6.6-3.8-11.2V91.3h6.7v34.5
	c0,2.5,0.6,5.6,2.1,7.3S469.1,137.4,479.1,137.6z"/>
<path class="st0" d="M764.7,135.5H741v-16.6h23.3c12.4,0,13.1,7.1,13.1,8.5C777.4,129.9,775.7,135.5,764.7,135.5L764.7,135.5z
	 M741,98.4h25.6c8.6,0,9.5,4.8,9.6,6.1c0.3,2.7-1,5.3-3.3,6.6l0,0c-2.2,1.1-4.7,1.6-7.2,1.4H741V98.4z M776.7,115.4
	c2-0.9,3.7-2.5,4.8-4.4c1.2-2.1,1.7-4.5,1.7-6.9c0-3.6-2-12.8-18.5-12.8H734v50.5h29.1c5.4,0,22.1,0.3,22.1-14.9
	C785.2,121.6,781.8,117,776.7,115.4L776.7,115.4z"/>
<path class="st0" d="M806.2,122.7l11.2-24.6l10.9,24.6L806.2,122.7z M820.9,91.4h-7l-24,50.5h7.3l6.4-13.1h27.5l6.4,13.1h7.7
	L820.9,91.4z"/>
<polygon class="st0" points="853.8,91.4 860.9,91.4 899.2,131.3 899.2,91.4 905.9,91.4 905.9,141.9 899.2,141.9 860.9,101.9 
	860.9,141.9 853.8,141.9 853.8,91.4 "/>
<polygon class="st0" points="924.4,91.4 917.4,91.4 917.4,141.9 924.4,141.9 924.4,123 936.6,114.1 959.9,141.9 968.2,141.9 
	942,110.5 967.2,91.4 957.8,91.4 924.4,116.3 924.4,91.4 "/>
</svg>
